<mxfile host="app.diagrams.net" agent="Mozilla/5.0 (Windows NT 10.0; Win64; x64) AppleWebKit/537.36 (KHTML, like Gecko) Chrome/136.0.0.0 Safari/537.36" version="27.0.6">
  <diagram name="Page-1" id="VEjF-hhevNHBmqu4Ifw0">
    <mxGraphModel dx="1388" dy="613" grid="1" gridSize="10" guides="1" tooltips="1" connect="1" arrows="1" fold="1" page="1" pageScale="1" pageWidth="850" pageHeight="1100" math="0" shadow="0">
      <root>
        <mxCell id="0" />
        <mxCell id="1" parent="0" />
        <mxCell id="d9-vNrPwo5r6UpcI0n2--12" style="edgeStyle=orthogonalEdgeStyle;rounded=0;orthogonalLoop=1;jettySize=auto;html=1;entryX=0;entryY=0.5;entryDx=0;entryDy=0;" edge="1" parent="1" source="d9-vNrPwo5r6UpcI0n2--1" target="d9-vNrPwo5r6UpcI0n2--11">
          <mxGeometry relative="1" as="geometry">
            <Array as="points">
              <mxPoint x="90" y="160" />
              <mxPoint x="90" y="90" />
            </Array>
          </mxGeometry>
        </mxCell>
        <mxCell id="d9-vNrPwo5r6UpcI0n2--15" style="edgeStyle=orthogonalEdgeStyle;rounded=0;orthogonalLoop=1;jettySize=auto;html=1;entryX=0;entryY=0.5;entryDx=0;entryDy=0;" edge="1" parent="1" source="d9-vNrPwo5r6UpcI0n2--1" target="d9-vNrPwo5r6UpcI0n2--13">
          <mxGeometry relative="1" as="geometry">
            <Array as="points">
              <mxPoint x="100" y="180" />
              <mxPoint x="100" y="145" />
            </Array>
          </mxGeometry>
        </mxCell>
        <mxCell id="d9-vNrPwo5r6UpcI0n2--16" style="edgeStyle=orthogonalEdgeStyle;rounded=0;orthogonalLoop=1;jettySize=auto;html=1;entryX=0;entryY=0.5;entryDx=0;entryDy=0;" edge="1" parent="1" source="d9-vNrPwo5r6UpcI0n2--1" target="d9-vNrPwo5r6UpcI0n2--14">
          <mxGeometry relative="1" as="geometry">
            <Array as="points">
              <mxPoint x="90" y="190" />
              <mxPoint x="90" y="200" />
            </Array>
          </mxGeometry>
        </mxCell>
        <mxCell id="d9-vNrPwo5r6UpcI0n2--1" value="Студент&lt;div&gt;&lt;br&gt;&lt;/div&gt;" style="shape=umlActor;verticalLabelPosition=bottom;verticalAlign=top;html=1;outlineConnect=0;fillColor=#dae8fc;strokeColor=#6c8ebf;" vertex="1" parent="1">
          <mxGeometry x="50" y="150" width="30" height="60" as="geometry" />
        </mxCell>
        <mxCell id="d9-vNrPwo5r6UpcI0n2--2" value="просмотреть курсы" style="ellipse;whiteSpace=wrap;html=1;" vertex="1" parent="1">
          <mxGeometry x="140" y="20" width="90" height="40" as="geometry" />
        </mxCell>
        <mxCell id="d9-vNrPwo5r6UpcI0n2--4" value="" style="endArrow=classic;html=1;rounded=0;entryX=-0.029;entryY=0.472;entryDx=0;entryDy=0;entryPerimeter=0;" edge="1" parent="1" target="d9-vNrPwo5r6UpcI0n2--2">
          <mxGeometry width="50" height="50" relative="1" as="geometry">
            <mxPoint x="65" y="140" as="sourcePoint" />
            <mxPoint x="240" y="130" as="targetPoint" />
            <Array as="points">
              <mxPoint x="65" y="40" />
            </Array>
          </mxGeometry>
        </mxCell>
        <mxCell id="d9-vNrPwo5r6UpcI0n2--5" style="edgeStyle=orthogonalEdgeStyle;rounded=0;orthogonalLoop=1;jettySize=auto;html=1;exitX=0.5;exitY=1;exitDx=0;exitDy=0;" edge="1" parent="1" source="d9-vNrPwo5r6UpcI0n2--2" target="d9-vNrPwo5r6UpcI0n2--2">
          <mxGeometry relative="1" as="geometry" />
        </mxCell>
        <mxCell id="d9-vNrPwo5r6UpcI0n2--11" value="записаться на курс" style="ellipse;whiteSpace=wrap;html=1;" vertex="1" parent="1">
          <mxGeometry x="140" y="70" width="90" height="40" as="geometry" />
        </mxCell>
        <mxCell id="d9-vNrPwo5r6UpcI0n2--13" value="зарегистрироваться на курс" style="ellipse;whiteSpace=wrap;html=1;" vertex="1" parent="1">
          <mxGeometry x="130" y="120" width="120" height="50" as="geometry" />
        </mxCell>
        <mxCell id="d9-vNrPwo5r6UpcI0n2--14" value="пройти курс" style="ellipse;whiteSpace=wrap;html=1;" vertex="1" parent="1">
          <mxGeometry x="140" y="180" width="100" height="40" as="geometry" />
        </mxCell>
        <mxCell id="d9-vNrPwo5r6UpcI0n2--17" value="написать работу" style="ellipse;whiteSpace=wrap;html=1;" vertex="1" parent="1">
          <mxGeometry x="280" y="130" width="80" height="40" as="geometry" />
        </mxCell>
        <mxCell id="d9-vNrPwo5r6UpcI0n2--18" value="пройти финальный тест" style="ellipse;whiteSpace=wrap;html=1;" vertex="1" parent="1">
          <mxGeometry x="280" y="180" width="80" height="40" as="geometry" />
        </mxCell>
        <mxCell id="d9-vNrPwo5r6UpcI0n2--19" value="прослушать лекцию" style="ellipse;whiteSpace=wrap;html=1;" vertex="1" parent="1">
          <mxGeometry x="270" y="240" width="80" height="40" as="geometry" />
        </mxCell>
        <mxCell id="d9-vNrPwo5r6UpcI0n2--20" value="" style="endArrow=none;dashed=1;html=1;dashPattern=1 3;strokeWidth=2;rounded=0;entryX=0;entryY=0.5;entryDx=0;entryDy=0;exitX=0.9;exitY=0.163;exitDx=0;exitDy=0;exitPerimeter=0;" edge="1" parent="1" source="d9-vNrPwo5r6UpcI0n2--14" target="d9-vNrPwo5r6UpcI0n2--17">
          <mxGeometry width="50" height="50" relative="1" as="geometry">
            <mxPoint x="220" y="190" as="sourcePoint" />
            <mxPoint x="270" y="140" as="targetPoint" />
          </mxGeometry>
        </mxCell>
        <mxCell id="d9-vNrPwo5r6UpcI0n2--21" value="" style="endArrow=none;dashed=1;html=1;dashPattern=1 3;strokeWidth=2;rounded=0;exitX=1;exitY=0.5;exitDx=0;exitDy=0;entryX=0;entryY=0.5;entryDx=0;entryDy=0;" edge="1" parent="1" source="d9-vNrPwo5r6UpcI0n2--14" target="d9-vNrPwo5r6UpcI0n2--18">
          <mxGeometry width="50" height="50" relative="1" as="geometry">
            <mxPoint x="220" y="190" as="sourcePoint" />
            <mxPoint x="270" y="140" as="targetPoint" />
          </mxGeometry>
        </mxCell>
        <mxCell id="d9-vNrPwo5r6UpcI0n2--22" value="" style="endArrow=none;dashed=1;html=1;dashPattern=1 3;strokeWidth=2;rounded=0;exitX=1;exitY=1;exitDx=0;exitDy=0;entryX=0;entryY=0;entryDx=0;entryDy=0;" edge="1" parent="1" source="d9-vNrPwo5r6UpcI0n2--14" target="d9-vNrPwo5r6UpcI0n2--19">
          <mxGeometry width="50" height="50" relative="1" as="geometry">
            <mxPoint x="220" y="190" as="sourcePoint" />
            <mxPoint x="270" y="140" as="targetPoint" />
          </mxGeometry>
        </mxCell>
        <mxCell id="d9-vNrPwo5r6UpcI0n2--23" value="просмотреть видео" style="ellipse;whiteSpace=wrap;html=1;" vertex="1" parent="1">
          <mxGeometry x="370" y="200" width="80" height="40" as="geometry" />
        </mxCell>
        <mxCell id="d9-vNrPwo5r6UpcI0n2--24" value="упражнение" style="ellipse;whiteSpace=wrap;html=1;" vertex="1" parent="1">
          <mxGeometry x="370" y="245" width="80" height="35" as="geometry" />
        </mxCell>
        <mxCell id="d9-vNrPwo5r6UpcI0n2--25" value="комментарий" style="ellipse;whiteSpace=wrap;html=1;" vertex="1" parent="1">
          <mxGeometry x="370" y="290" width="80" height="40" as="geometry" />
        </mxCell>
        <mxCell id="d9-vNrPwo5r6UpcI0n2--27" value="" style="endArrow=none;dashed=1;html=1;dashPattern=1 3;strokeWidth=2;rounded=0;exitX=1;exitY=0;exitDx=0;exitDy=0;entryX=0;entryY=0.5;entryDx=0;entryDy=0;" edge="1" parent="1" source="d9-vNrPwo5r6UpcI0n2--19" target="d9-vNrPwo5r6UpcI0n2--23">
          <mxGeometry width="50" height="50" relative="1" as="geometry">
            <mxPoint x="220" y="230" as="sourcePoint" />
            <mxPoint x="270" y="180" as="targetPoint" />
          </mxGeometry>
        </mxCell>
        <mxCell id="d9-vNrPwo5r6UpcI0n2--28" value="" style="endArrow=none;dashed=1;html=1;dashPattern=1 3;strokeWidth=2;rounded=0;exitX=1;exitY=0.5;exitDx=0;exitDy=0;entryX=0;entryY=0.5;entryDx=0;entryDy=0;" edge="1" parent="1" source="d9-vNrPwo5r6UpcI0n2--19" target="d9-vNrPwo5r6UpcI0n2--24">
          <mxGeometry width="50" height="50" relative="1" as="geometry">
            <mxPoint x="220" y="230" as="sourcePoint" />
            <mxPoint x="270" y="180" as="targetPoint" />
          </mxGeometry>
        </mxCell>
        <mxCell id="d9-vNrPwo5r6UpcI0n2--29" value="" style="endArrow=none;dashed=1;html=1;dashPattern=1 3;strokeWidth=2;rounded=0;exitX=1;exitY=1;exitDx=0;exitDy=0;entryX=0;entryY=0.5;entryDx=0;entryDy=0;" edge="1" parent="1" source="d9-vNrPwo5r6UpcI0n2--19" target="d9-vNrPwo5r6UpcI0n2--25">
          <mxGeometry width="50" height="50" relative="1" as="geometry">
            <mxPoint x="220" y="230" as="sourcePoint" />
            <mxPoint x="270" y="180" as="targetPoint" />
          </mxGeometry>
        </mxCell>
        <mxCell id="d9-vNrPwo5r6UpcI0n2--31" value="Преподаватель&lt;div&gt;&lt;br&gt;&lt;/div&gt;" style="shape=umlActor;verticalLabelPosition=bottom;verticalAlign=top;html=1;outlineConnect=0;fillColor=#e1d5e7;strokeColor=#9673a6;" vertex="1" parent="1">
          <mxGeometry x="50" y="350" width="30" height="60" as="geometry" />
        </mxCell>
        <mxCell id="d9-vNrPwo5r6UpcI0n2--34" value="оценить лабораторную работу" style="ellipse;whiteSpace=wrap;html=1;" vertex="1" parent="1">
          <mxGeometry x="145" y="300" width="90" height="50" as="geometry" />
        </mxCell>
        <mxCell id="d9-vNrPwo5r6UpcI0n2--35" value="управлять своими курсами" style="ellipse;whiteSpace=wrap;html=1;" vertex="1" parent="1">
          <mxGeometry x="142.5" y="360" width="95" height="50" as="geometry" />
        </mxCell>
        <mxCell id="d9-vNrPwo5r6UpcI0n2--37" value="" style="endArrow=classic;html=1;rounded=0;entryX=0;entryY=0.5;entryDx=0;entryDy=0;" edge="1" parent="1" source="d9-vNrPwo5r6UpcI0n2--31" target="d9-vNrPwo5r6UpcI0n2--34">
          <mxGeometry width="50" height="50" relative="1" as="geometry">
            <mxPoint x="250" y="350" as="sourcePoint" />
            <mxPoint x="300" y="300" as="targetPoint" />
          </mxGeometry>
        </mxCell>
        <mxCell id="d9-vNrPwo5r6UpcI0n2--38" value="" style="endArrow=classic;html=1;rounded=0;entryX=0;entryY=0.5;entryDx=0;entryDy=0;" edge="1" parent="1" source="d9-vNrPwo5r6UpcI0n2--31" target="d9-vNrPwo5r6UpcI0n2--35">
          <mxGeometry width="50" height="50" relative="1" as="geometry">
            <mxPoint x="250" y="350" as="sourcePoint" />
            <mxPoint x="300" y="300" as="targetPoint" />
          </mxGeometry>
        </mxCell>
        <mxCell id="d9-vNrPwo5r6UpcI0n2--39" value="создавать курсы" style="ellipse;whiteSpace=wrap;html=1;" vertex="1" parent="1">
          <mxGeometry x="260" y="330" width="90" height="50" as="geometry" />
        </mxCell>
        <mxCell id="d9-vNrPwo5r6UpcI0n2--40" value="опубликовывать на портале" style="ellipse;whiteSpace=wrap;html=1;" vertex="1" parent="1">
          <mxGeometry x="260" y="390" width="90" height="50" as="geometry" />
        </mxCell>
        <mxCell id="d9-vNrPwo5r6UpcI0n2--41" value="менять курсы" style="ellipse;whiteSpace=wrap;html=1;" vertex="1" parent="1">
          <mxGeometry x="260" y="450" width="90" height="50" as="geometry" />
        </mxCell>
        <mxCell id="d9-vNrPwo5r6UpcI0n2--42" value="" style="endArrow=none;dashed=1;html=1;dashPattern=1 3;strokeWidth=2;rounded=0;exitX=1;exitY=0.5;exitDx=0;exitDy=0;entryX=0;entryY=0.5;entryDx=0;entryDy=0;" edge="1" parent="1" source="d9-vNrPwo5r6UpcI0n2--35" target="d9-vNrPwo5r6UpcI0n2--39">
          <mxGeometry width="50" height="50" relative="1" as="geometry">
            <mxPoint x="250" y="390" as="sourcePoint" />
            <mxPoint x="300" y="340" as="targetPoint" />
          </mxGeometry>
        </mxCell>
        <mxCell id="d9-vNrPwo5r6UpcI0n2--43" value="" style="endArrow=none;dashed=1;html=1;dashPattern=1 3;strokeWidth=2;rounded=0;entryX=1;entryY=1;entryDx=0;entryDy=0;exitX=0;exitY=0.5;exitDx=0;exitDy=0;" edge="1" parent="1" source="d9-vNrPwo5r6UpcI0n2--40" target="d9-vNrPwo5r6UpcI0n2--35">
          <mxGeometry width="50" height="50" relative="1" as="geometry">
            <mxPoint x="190" y="460" as="sourcePoint" />
            <mxPoint x="240" y="410" as="targetPoint" />
          </mxGeometry>
        </mxCell>
        <mxCell id="d9-vNrPwo5r6UpcI0n2--44" value="" style="endArrow=none;dashed=1;html=1;dashPattern=1 3;strokeWidth=2;rounded=0;entryX=0.5;entryY=1;entryDx=0;entryDy=0;exitX=0;exitY=0.5;exitDx=0;exitDy=0;" edge="1" parent="1" source="d9-vNrPwo5r6UpcI0n2--41" target="d9-vNrPwo5r6UpcI0n2--35">
          <mxGeometry width="50" height="50" relative="1" as="geometry">
            <mxPoint x="145" y="480" as="sourcePoint" />
            <mxPoint x="195" y="430" as="targetPoint" />
          </mxGeometry>
        </mxCell>
        <mxCell id="d9-vNrPwo5r6UpcI0n2--45" value="Администратор&lt;div&gt;&lt;br&gt;&lt;/div&gt;" style="shape=umlActor;verticalLabelPosition=bottom;verticalAlign=top;html=1;outlineConnect=0;fillColor=#ffe6cc;strokeColor=#d79b00;" vertex="1" parent="1">
          <mxGeometry x="50" y="500" width="30" height="60" as="geometry" />
        </mxCell>
        <mxCell id="d9-vNrPwo5r6UpcI0n2--46" value="управлять расписанием студентов" style="ellipse;whiteSpace=wrap;html=1;" vertex="1" parent="1">
          <mxGeometry x="130" y="460" width="105" height="60" as="geometry" />
        </mxCell>
        <mxCell id="d9-vNrPwo5r6UpcI0n2--47" value="управлять расписание курсов курсами" style="ellipse;whiteSpace=wrap;html=1;" vertex="1" parent="1">
          <mxGeometry x="132.5" y="525" width="102.5" height="65" as="geometry" />
        </mxCell>
        <mxCell id="d9-vNrPwo5r6UpcI0n2--48" value="управлять проведением лекций ZOOM" style="ellipse;whiteSpace=wrap;html=1;" vertex="1" parent="1">
          <mxGeometry x="140" y="600" width="95" height="60" as="geometry" />
        </mxCell>
        <mxCell id="d9-vNrPwo5r6UpcI0n2--49" value="" style="endArrow=classic;html=1;rounded=0;entryX=0;entryY=0.5;entryDx=0;entryDy=0;" edge="1" parent="1" source="d9-vNrPwo5r6UpcI0n2--45" target="d9-vNrPwo5r6UpcI0n2--46">
          <mxGeometry width="50" height="50" relative="1" as="geometry">
            <mxPoint x="250" y="490" as="sourcePoint" />
            <mxPoint x="300" y="440" as="targetPoint" />
          </mxGeometry>
        </mxCell>
        <mxCell id="d9-vNrPwo5r6UpcI0n2--50" value="" style="endArrow=classic;html=1;rounded=0;entryX=0;entryY=0.5;entryDx=0;entryDy=0;" edge="1" parent="1" source="d9-vNrPwo5r6UpcI0n2--45" target="d9-vNrPwo5r6UpcI0n2--47">
          <mxGeometry width="50" height="50" relative="1" as="geometry">
            <mxPoint x="250" y="490" as="sourcePoint" />
            <mxPoint x="300" y="440" as="targetPoint" />
          </mxGeometry>
        </mxCell>
        <mxCell id="d9-vNrPwo5r6UpcI0n2--51" value="" style="endArrow=classic;html=1;rounded=0;entryX=0;entryY=0.5;entryDx=0;entryDy=0;" edge="1" parent="1" source="d9-vNrPwo5r6UpcI0n2--45" target="d9-vNrPwo5r6UpcI0n2--48">
          <mxGeometry width="50" height="50" relative="1" as="geometry">
            <mxPoint x="250" y="490" as="sourcePoint" />
            <mxPoint x="300" y="440" as="targetPoint" />
          </mxGeometry>
        </mxCell>
      </root>
    </mxGraphModel>
  </diagram>
</mxfile>
